<svg width="30" height="30" viewBox="0 0 30 30" fill="none" xmlns="http://www.w3.org/2000/svg">
<path d="M29.7075 15.3455C29.7075 14.3259 29.6248 13.3007 29.4485 12.2976H15.3V18.0738H23.4022C23.0659 19.9367 21.9857 21.5847 20.4038 22.6319V26.3799H25.2375C28.0761 23.7673 29.7075 19.9092 29.7075 15.3455Z" fill="#4285F4"/>
<path d="M15.3 30.001C19.3455 30.001 22.7573 28.6727 25.243 26.3799L20.4093 22.6319C19.0644 23.5469 17.3283 24.065 15.3055 24.065C11.3922 24.065 8.07419 21.4249 6.88367 17.8754H1.89561V21.739C4.442 26.8043 9.62848 30.001 15.3 30.001Z" fill="#34A853"/>
<path d="M6.87817 17.8754C6.24984 16.0124 6.24984 13.9951 6.87817 12.1322V8.26853H1.89562C-0.23188 12.507 -0.231896 17.5006 1.89561 21.739L6.87817 17.8754Z" fill="#FBBC04"/>
<path d="M15.3 5.93708C17.4385 5.90401 19.5054 6.70871 21.0542 8.18584L25.3367 3.90327C22.625 1.35688 19.0259 -0.0430825 15.3 0.00101083C9.62848 0.00101083 4.44201 3.19779 1.89562 8.26853L6.87817 12.1322C8.06318 8.57718 11.3867 5.93708 15.3 5.93708Z" fill="#EA4335"/>
</svg>
