<svg width="30" height="26" viewBox="0 0 30 26" fill="none" xmlns="http://www.w3.org/2000/svg">
<path d="M9.4344 25.1884C20.7552 25.1884 26.9472 15.8092 26.9472 7.67556C26.9472 7.40916 26.9472 7.14396 26.9292 6.87996C28.1338 6.00865 29.1736 4.92981 30 3.69396C28.8767 4.19196 27.685 4.5184 26.4648 4.66236C27.7498 3.89322 28.7114 2.68334 29.1708 1.25796C27.9626 1.97497 26.6408 2.48024 25.2624 2.75196C24.3344 1.76518 23.107 1.11176 21.7702 0.892814C20.4335 0.673868 19.0618 0.901602 17.8675 1.54077C16.6731 2.17995 15.7228 3.19493 15.1634 4.42864C14.6041 5.66236 14.4669 7.04604 14.7732 8.36556C12.3261 8.24281 9.9322 7.60685 7.74682 6.49896C5.56144 5.39108 3.63345 3.83603 2.088 1.93476C1.30091 3.28975 1.05984 4.89379 1.41387 6.42029C1.76791 7.94678 2.69043 9.28095 3.9936 10.1512C3.01404 10.1225 2.05581 9.8582 1.2 9.38076V9.45876C1.20039 10.8798 1.69231 12.257 2.59234 13.3567C3.49236 14.4564 4.74508 15.211 6.138 15.4924C5.23185 15.7395 4.28109 15.7757 3.3588 15.598C3.75227 16.8209 4.51804 17.8903 5.54905 18.6566C6.58006 19.423 7.82478 19.8481 9.1092 19.8724C7.83305 20.8755 6.37164 21.6171 4.80859 22.0549C3.24554 22.4926 1.61152 22.6179 0 22.4236C2.81479 24.2298 6.08991 25.188 9.4344 25.1836" fill="#1DA1F2"/>
</svg>
